<svg enable-background="new 0 0 102.4 102.1" viewBox="0 0 102.4 102.1" xmlns="http://www.w3.org/2000/svg"><g fill="#fdde32"><path d="m82.2 80.3c-.1 0-.1 0-.2 0-.4.1-.8.2-1.1.2.4 0 .9 0 1.3-.2z"/><path d="m77 48.7c0 .2.1-.2.1.3v-3.1c.3.1.5 2.6.6 4.3v2c-.3 0-.5-1.8-.6 1.3.4 1.1 0 3.7.2 5.2l.1-.2c.1 3.7-1 1.8-.8 4.6.2-2.6.2 1.8.4-.8.1-.8.5-.7.7-.8v6.6c-.1.1-.1.1-.2.1 0-.5.1-.6 0-.8 0 .1-.1.4-.2-.3v2.9l-.2-.1c.1 1.7.1 2.8 0 3.8 0 .5-.1.9-.2 1.4 0 .2-.1.5-.1.7v.4.5c.1 1.2 1 2.4 2.1 3.1 1 .6 2.2.7 3.1.6.4-.1.8-.3 1.1-.6.8-.6 1.5-1.4 1.8-2.7.2-.7.2-.1.2.2.1-.5.1-1 .1-1.4s-.1-.9-.1-1.3c-.1-.9-.1-1.8-.2-2.7-.1-1.8-.2-3.7-.3-5.6v-8.8c.1 1.3.2 2.4.2 3v-1.3c.2 1.4.4-1.5.5-.3 0-3.4.6-8-.2-9.1l.1 1c-.2.9-.2 2.5-.4 2.4l-.2-1.6v-11c0 .2.1.3.1.2 0 .3-.1.6-.1.7l.2 3.7.1-.4c.3-.8-.1-1.5 0-2.3.3.2.2-2.5.3-3.6-.1-3.8-.3-4.1-.6-4.2v-3.6c.1-1.1.1-2.2 0-3.2v-5.8c.2-.9.1-1.7 0-2.5v-2c0 .2.1.5.1.2l-.1-1.8v-8.9c0-1.9-1.5-3.4-3.4-3.4s-3.4 1.5-3.4 3.4v.6c0 .3-.1.5-.1.7 0 .7-.2 3.5.1 3-.4 3.4-.1 7.7-.5 11.1.1 5.5-.6 5.3-.2 10.6-.1.9-.3.4-.3 1.3-.2 2.6.3 4.4.7 6.1 0 1.6.1 3.7-.2 3.9-.1-.3-.1-1.4-.2-1.8-1.4-1.7.4 3.9-.1 6.1zm.8 26.9c0-.2 0-.3 0-.5 0-.6 0-1.3 0-2.2v.1z"/><path d="m85.4 58.7c0 .5 0 1 .1 1.4-.1-.7-.1-1.2-.1-1.4z"/><path d="m77.2 55c-.2-.2-.2-2.5-.5-2.5v2.3c.2-.6.3 2.8.5.2z"/><path d="m86.1 71.3c-.1-1.2 0-3.4-.3-4.4.1 2.1 0 4 .2 5.9z"/><path d="m86.1 71.3c0 .3.1.5.1.7 0-.7 0-.6-.1-.7z"/><path d="m67.9 80.3c.4-.1.8-.3 1.1-.6.7-.6 1.5-1.4 1.8-2.7.2-.7.2-.1.2.2.1-.5.1-1 .1-1.4s-.1-.9-.1-1.3c-.1-.9-.1-1.8-.2-2.7-.1-1.8-.2-3.7-.3-5.6v-8.8c.1 1.3.2 2.4.2 3v-1.3c.2 1.4.4-1.5.5-.3 0-3.4.6-8-.2-9.1l.1 1c-.1.8-.1 2.4-.3 2.3l-.2-1.6v-11c0 .2.1.3.1.2 0 .3-.1.6-.1.7l.2 3.7.1-.4c.3-.8-.1-1.5 0-2.3.3.2.2-2.5.3-3.6-.1-3.8-.3-4.1-.6-4.2v-3.6c.1-1.1.1-2.2 0-3.2v-5.8c.2-.9.1-1.7 0-2.5v-2c0 .2.1.5.1.2l-.1-1.8v-8.7c0-1.9-1.5-3.4-3.4-3.4s-3.4 1.5-3.4 3.4v.6c0 .3-.1.5-.1.7 0 .7-.2 3.5.1 3-.4 3.4-.1 7.7-.5 11.1.1 5.5-.6 5.3-.2 10.6-.1.9-.3.4-.3 1.3-.2 2.6.3 4.4.7 6.1 0 1.6.1 3.7-.2 3.9-.3-.4-.3-1.5-.3-1.9-1.3-1.6.4 4.1 0 6.2 0 .2.1-.2.1.3v-3.1c.3.1.5 2.6.6 4.3v2c-.3 0-.5-1.8-.6 1.3.4 1.1 0 3.7.2 5.2l.1-.2c.1 3.7-1 1.8-.8 4.6.2-2.6.2 1.8.4-.8.1-.8.5-.7.7-.8v6.6c-.1.1-.1.1-.2.1 0-.5.1-.6 0-.8 0 .1-.1.4-.2-.3v2.9l-.2-.1c.1 1.7.1 2.8 0 3.8 0 .5-.1.9-.2 1.4 0 .2-.1.5-.1.7v.4.5c.1 1.2 1 2.4 2.1 3.1 1 .5 2.1.6 3 .5zm-4.2-4.7c0-.2 0-.3 0-.5 0-.6 0-1.3 0-2.2v.1z"/><path d="m68.1 80.3c-.1 0-.1 0-.2 0-.4.1-.8.2-1.1.2.5 0 .9 0 1.3-.2z"/><path d="m71.3 58.7c0 .5 0 1 .1 1.4-.1-.7-.1-1.2-.1-1.4z"/><path d="m63.1 55c-.2-.2-.2-2.5-.5-2.5v2.3c.3-.6.3 2.8.5.2z"/><path d="m72 71.3c-.1-1.2 0-3.4-.3-4.4.1 2.1 0 4 .2 5.9z"/><path d="m72 71.3c0 .3.1.5.1.7.1-.7 0-.6-.1-.7z"/><path d="m57 58.7c0 .5 0 1 .1 1.4-.1-.7-.1-1.2-.1-1.4z"/><path d="m53.8 80.3c-.1 0-.1 0-.2 0-.4.1-.8.2-1.1.2.5 0 .9 0 1.3-.2z"/><path d="m56.8 50.6c-.2.9-.2 2.5-.4 2.4l-.2-1.6v-11c0 .2.1.3.1.2 0 .3-.1.6-.1.7l.2 3.7.1-.4c.3-.8-.1-1.5 0-2.3.3.2.2-2.5.3-3.6-.1-3.8-.3-4.1-.6-4.2v-3.6c.1-1.1.1-2.2 0-3.2v-5.8c.2-.9.1-1.7 0-2.5v-2c0 .2.1.5.1.2l-.1-1.8v-8.7c0-1.9-1.5-3.4-3.4-3.4s-3.4 1.5-3.4 3.4v.6c0 .3-.1.5-.1.7 0 .7-.2 3.5.1 3-.4 3.4-.1 7.7-.5 11.1.1 5.5-.6 5.3-.2 10.6-.1.9-.3.4-.3 1.3-.2 2.6.3 4.4.7 6.1 0 1.6.1 3.7-.2 3.9-.1-.3-.1-1.4-.2-1.8-1.3-1.6.4 4.1 0 6.2 0 .2.1-.2.1.3v-3.1c.3.1.5 2.6.6 4.3v2c-.3 0-.5-1.8-.6 1.3.4 1.1 0 3.7.2 5.2l.1-.2c.1 3.7-1 1.8-.8 4.6.2-2.6.2 1.8.4-.8.1-.8.5-.7.7-.8v6.6c-.1.1-.1.1-.2.1 0-.5.1-.6 0-.8 0 .1-.1.4-.2-.3v2.8l-.2-.1c.1 1.7.1 2.8 0 3.8 0 .5-.1.9-.2 1.4 0 .2-.1.5-.1.7v.4.5c.1 1.2 1 2.4 2.1 3.1 1 .6 2.2.7 3.1.6.4-.1.8-.3 1.1-.6.8-.6 1.5-1.4 1.8-2.7.2-.7.2-.1.2.2.1-.5.1-1 .1-1.4s-.1-.9-.1-1.3c-.1-.9-.1-1.8-.2-2.7-.1-1.8-.2-3.7-.3-5.6v-8.8c.1 1.3.2 2.4.2 3v-1.3c.2 1.4.4-1.5.5-.3 0-3.4.6-8-.2-9.1zm-7.4 25c0-.2 0-.3 0-.5 0-.6 0-1.3 0-2.2v.1z"/><path d="m48.8 55c-.2-.2-.2-2.5-.5-2.5v2.3c.2-.6.3 2.8.5.2z"/><path d="m57.6 72.8.1-1.6c-.1-1.3-.1-3.5-.4-4.4.1 2.2 0 4.1.3 6z"/><path d="m57.7 71.3c0 .3.1.5.1.7 0-.7 0-.6-.1-.7z"/><path d="m3.4 42.7c0-.1 0-.2 0-.3-.1-.5-.1-.9-.2-1.3.1.6.2 1.1.2 1.6z"/><path d="m17.3 71.1c-.6-.5-1.1-1-1.7-1.4.9.8 1.5 1.2 1.7 1.4z"/><path d="m21.7 8.9c.1-.4 3.1-2.1 2.9-2.2-1 .5-2 1.1-3 1.7.4-.1-.4.5-.9.9s-.7.6 1-.4z"/><path d="m28.8 77.6-1.4-.5c-.6-.3-1.4-.7-2-1.1s-1.1-.7-1-.7c.7.3 1.4.6 2.1.9 4.7 2.2 10 3.4 15.5 3.4-.3 0-.4.1-.1.1-.5 0-1-.1-1.2-.1-1.8 0-3.5-.1-5.3-.4l.6.2c.6.2 1.1.3 1.7.3.5 0 1.1 0 1.6.1-.1.1.1.1.5.2.2 0 .4.1.7.1h1 1.1.1.1v-.1-.3c0-.2 0-.4 0-.6 0-.4 0-.8 0-1.1s0-.5 0-.7c0-1.1 0-1.9-.1-2.6 0-.4 0-.8 0-1.1 0-.4 0-.7-.1-1 0-.1 0-.1 0-.2v-.1-.1c-.1 0-.2 0-.4 0s-.4 0-.6 0c-.3 0-.5.1-.6.1-.2.1-.2.1-.3.2-1.6-.1-3.3-.3-4.8-.6-1.7-.5-3.6-1-5.1-1.5-2.6-1-5.1-2.4-7.4-4.1l.4.2c-.4-.4-.8-.8-1.2-1.1s-.8-.6-1.2-1c-.2-.1-.4-.3-.6-.4-.7-.6-1.3-1.3-1.9-1.9.1 0 .7.6.4.2l-1-1c-.3-.3-.6-.7-.9-1.1l-.2-.2c-1.5-2.1-2.8-4.4-3.8-6.8-.2-.4-.3-.9-.5-1.3 0-.1-.1-.1-.1-.2-1.1-3.2-1.7-6.6-1.7-10.1 0-2.9.4-5.7 1.2-8.4.2-.5.3-1 .5-1.2.2-.5.7-1.6 1-2.6.5-.9.8-1.7.5-1.4.2-.3.3-.5.5-.8l.2-.4.3-.4c.4-.5.7-1.1 1.1-1.7l.3-.4.3-.4.6-.8c.4-.5.8-1.1 1.3-1.6s.9-1 1.4-1.5 1-.9 1.5-1.4c1-.9 2.1-1.6 3.1-2.3 1.6-1.1 2.9-1.8 4-2.3.5-.2 1-.4 1.5-.6.5-.1.9-.3 1.4-.4.4-.1.9-.3 1.3-.4.5-.1 1-.2 1.5-.4.6-.1 1.1-.3 1.8-.4s1.5-.3 2.4-.4c1.3 0 .5.2 1.8.2h.4.6 1.1.6c0-.2 0-.4 0-.6 0-.4 0-.7 0-1.1 0-.3 0-.7 0-1 0-.2 0-.4 0-.6 0-.4-.1-.8-.1-1.1-.1-.7-.2-1.4-.3-2 0-.4-.1-.9-.1-1.3 0-.2 0-.4-.1-.6v-.1s0-.1-.1-.1h-.3c-.7 0-1.5 0-2.2.1-.6.1-1.2.1-1.8.1-1.1.1-1.9.2-2.1.1.4-.2 2-.4 2.6-.5 1.1-.7-.4-.6-2.5 0-2.2.5-4.8 1.6-6.4 1.9-.3.1.3 0-.4.3l1.1-.4 1.1-.3c.7-.2 1.5-.4 2.2-.6 0 .1-.5.3-1.1.5s-1.5.5-2.4.9c-.8.3-1.7.7-2.4 1.1-.9.4-1.8.8-2.7 1.2 0-.1.2-.3.4-.5.3-.3.2-.5-2.4.9-.3.3-.7.6-1.2.9s-1.1.7-1.7 1.1c-1.2.8-2.4 1.7-3.2 2.5l.3-.1c-1 .9-1.6 1.5-2.1 1.8s-.7.5-1 .6c-.5.2-.9.2-2.2 1.9 2.6-2.7-1.6 2.1 1.1-.6.8-.7 1.1-.5 1.3-.3-2.2 2.3-4.1 4.9-5.6 7.7-.1.1-.2.1-.3 0 .4-.6.5-.7.6-1-.1.2-.4.5 0-.4-.6 1-1.3 2.2-1.9 3.4l-.1-.2c-1 2.2-1.5 3.9-2 5.2-.5 1.4-.9 2.5-1.3 3.9-.1.7-.2 1.4-.3 2.1 0 .4-.1.8-.1 1.1v1.1 2.2c0 .6 0 1.1-.1 1.6.2 1.4.6 3.2 1.1 5.8.1.9-.1.1-.2-.1 1 4.8 3.1 9.8 6.4 14.4 2.3 3.5 5.3 6.6 8.6 9.2-1.5-1.1-2.7-2-3.4-2.6.4.4.9.9 1.3 1.3-1-.7-.3 0 .2.6.3.3.4.5-.1.2.5.4 1.1.9 1.6 1.3 1.2 1 2.5 1.9 3.8 2.7 2.5 1.6 5 2.6 6 2.4zm-22.5-48.1c-.4 1.2-.8 2.5-1.1 3.7.2-1 .4-2.2 1.1-3.9z"/><path d="m5.8 56.4c-.2-.4-.3-.7-.5-.9.4 1 .4.8.5.9z"/><path d="m6 56.9c.3.6.6 1.3 1 1.9.7 1.3 1.5 2.7 2.1 3.3-1.7-2.7-2.8-5.3-4-7.9.2.8.5 1.5.7 2.2 0 0 0 0 0-.1 0 .3.1.4.2.6z"/><path d="m26.1 60c-.3-.3-.7-.6-1-.8.5.4.8.6 1 .8z"/><path d="m17.6 42.3s0-.1 0-.2c-.1-.3-.2-.6-.2-.8 0 .4.1.7.2 1z"/><path d="m28.2 21.4c-.3.3-.4.4.6-.2.1-.3 1.9-1.4 1.7-1.6-.6.3-1.2.7-1.8 1.1.3 0-.2.4-.5.7z"/><path d="m43.3 20v-.3-.2-.3c-.1-.7-.2-1.3-.3-1.8v-.2-.1h-.1c-.2 0-.3.1-.5.1-.3.1-.5.1-.8.2-1 0-1.7.1-2.4.2s-1.2.1-1.3 0c.3-.2 1.3-.3 1.6-.4.7-.8-.3-.5-1.6-.1-.7.2-1.4.6-2.1.8s-1.3.5-1.8.6c-.2.1.2.1-.2.2l1.3-.5 1.4-.4c0 .1-.3.3-.6.5-.2.1-.4.2-.7.3-.2.1-.5.2-.8.4-.5.2-.9.4-1.4.7-.6.2-1.2.5-1.7.8 0-.1.1-.3.2-.4s.1-.2-.1-.2-.6.2-1.4.6c-.6.8-2.8 1.8-3.7 2.9h.2c-.6.6-1 .9-1.3 1.1s-.5.3-.7.3c-.4.1-.7 0-1.5 1.1.9-.8.6-.5.4-.2-.1.2-.2.3-.2.4 0 0 .2-.1.6-.5.5-.4.8-.2 1 0-1.3 1.4-2.5 3-3.4 4.8-.1 0-.2 0-.2 0 .2-.4.3-.4.4-.6-.1.1-.3.3 0-.3-.5.7-.8 1.4-1.2 2.1l-.4-.2c-.3.7-.5 1.3-.7 1.8s-.4 1-.6 1.4-.3.8-.5 1.2-.3.8-.5 1.2c-.3 1.6-.1 3.8-.2 5.1.1.3.2.6.3.9.1.4.2.7.3 1.2.1.4.2.9.3 1.4 0 .6-.1.1-.2-.1.7 2.8 2 5.8 3.8 8.5 1.4 2.3 3.3 4.4 5.4 6.1-.1-.1-.2-.1-.3-.2-.8-.6-1.4-1-1.7-1.4l.8.8c-1.1-.7.8 1.2-.1.6 1 .9 2.1 1.9 3.3 2.7.4.3.8.5 1.1.7.4.2.7.4 1.1.5.7.3 1.2.4 1.5.2-.3-.1-.6-.2-.9-.3-.7-.5-2-1.1-1.7-1.3.4.2.8.3 1.1.4 2.9 1.4 6.1 2.3 9.5 2.4-.1 0-.1.1 0 .1-.3 0-.6-.1-.7-.1-.3 0-.5 0-.8 0l-.8-.1c-.5-.1-1.1-.1-1.6-.2.1.1.2.1.3.2.7.4 1.4.1 2 .3 0 .1.1.2.3.2.1 0 .2 0 .4.1h.2.3c.5 0 1 .1 1.5.1h.4c.1 0 .1-.1.1-.1 0-.1 0-.1 0-.2 0-.2 0-.4 0-.6 0-.5 0-.9 0-1.2s0-.5 0-.8c0-.4-.1-.8-.1-1.1-.1-.5-.2-.8-.3-.9s-.1-.1-.2-.1v-2.6c-.2 0-.3 0-.5 0-.3-.1-.7-.1-1.1-.1-.5-.1-1-.1-1.4-.2-.2 0-.3 0-.5-.1-1.7-.4-3.3-1-4.8-1.8-.5-.5-1.1-.7-1.6-1.1-.1-.1-.2-.1-.4-.2-.4-.3-.9-.7-1.3-1.1.1 0 .5.3.2 0-.2-.2-.5-.3-.7-.5l-.6-.6s0 0-.1-.1c-1.1-1.2-2-2.5-2.6-4 0-.1-.1-.1-.1-.2-.1-.1-.1-.3-.2-.4-.9-2-1.3-4.2-1.3-6.6 0-1.8.3-3.6.8-5.2.1-.3.3-.5.3-.6.1-.1.2-.4.3-.7s.3-.6.5-.9c.3-.6.5-1 .3-.9.9-1.2 2-2.6 3.2-3.7 1.2-1.2 2.6-2.1 4-2.6.5-.3 1-.5 1.4-.7s.8-.3 1.2-.4c.7-.2 1.3-.2 1.8-.3h.8.4.2.4c.5 0 1.1 0 1.7-.1h.2.1v-.1c0-.2 0-.4 0-.6 0-.4 0-.8 0-1.2 0-.3 0-.4.1-.5 0-.1.1-.1.1-.2.1-.1.1-.2.2-.6 0-.6 0-1.1 0-1.6.2.2.2-.1.2-.3zm-23.6 14.1c-.2.7-.4 1.4-.6 2.1 0-.1 0-.2 0-.3 0-.3.1-.5.2-.8s.2-.6.4-1z"/><path d="m19 51.2.6 1.2c.2.4.4.8.7 1.2.3.3.5.6.7.8-.3-.4-.5-.8-.7-1.2s-.4-.8-.6-1.2l-.3-.6c-.1-.2-.2-.4-.3-.6-.2-.4-.4-.8-.6-1.2l.4 1.4s0 .1.1.2z"/><path d="m18.8 50.9c-.1-.2-.2-.4-.3-.6.2.7.3.5.3.6z"/><path d="m43 47.4c-.1.2-.5.2-.7.2v-2h.2c0 .1-.1.2 0 .2 0 0 .1-.1.2.1l.1-.8h.2c-.2-1 .1-1.4.4-2 0-.5-.4-1.2-.2-1.7-.2-.3-.5-.7-.5-1.2.1-.2.1 0 .2 0-.2-1-.4-2.1-.6-3.3v-2.7.2c.1.3.1.6.2.8v-.4c.2.4.4-.5.5-.1 0-.1 0-.3 0-.5 0-.1 0-.2 0-.2v-.1-.2c0-.3.1-.5.1-.8 0-1 .2-2.1-.7-1.2h.2c.1 0 .2-.1.2 0-.1.5-.1 1.1-.4 1.2-.1-.1-.1-.3-.2-.4v-.3c-1.1 0-2.1.2-3 .5 0-.1.1-.1 0-.2.1-.1.2 0 .3 0l.5-.2c.2-.1.3-.2.6-.2l-.2-.1c-.4-.2-.5.2-.7.2 0-.2-.2-.2-.5-.1-.2.1-.5.2-.7.2-.9.4-1 .7-1 .9 0 .1 0 .1.1.2-.3.2-.6.4-.9.6-.3.1-.6.4-.8.6-.4.4-.8.8-1.2 1.3-.3.1-.4.3-.4.6-.1.2-.2.3-.3.5 0-.1 0-.2-.1-.1-.1.2-.1.4-.1.5-.6 1.2-1 2.6-1 4.1 0 .6.1 1.2.2 1.8 0 .1 0 .2-.1.2 0 .2.1 1.1.3.9 0 .3 0 .6.1.8.1.3.2.6.3.8.1.3.3.5.4.8s.3.5.4.8c.6.6.8 1 1.1 1.4.1.2.2.4.4.5.2.2.5.4.9.5.2.2 0 .3.2.5.3.3.7.4 1.1.4s.7-.1 1-.2c.5.2 1.2.2 1.2.5-.2.1-.5 0-.6 0-.4.6-.1.5.5.5.4-.1.8-.1 1.1-.2.3 0 .6-.1.9.1.1 0-.2-.1 0-.1-.4 0-.9 0-1.3-.1 0-.2.4-.3.8-.4.2 0 .3-.1.4-.1h.1v-.6l.3.3c.1.2.3.4.3-.5-.2-.3-.2-.6-.1-1 0-.3.1-.6 0-.8l-.1.1c-.1-1.1 1-.6.8-1.4-.3.9-.2-.4-.4.4zm-.8-4c.1.2.1.4 0 .8z"/><path d="m43.1 41.4c.1.2.1.2.2.3z"/><path d="m42.9 34.7c0 .2 0 .3.1.4 0-.2 0-.4-.1-.4z"/><path d="m43.1 49.5c-.1-.2-.1-.3-.2.3.2.1.2 1.2.5 1.4 0-.4 0-.8 0-1.2-.2.1-.2-.3-.3-.5z"/><path d="m43.5 39 .1-.5c-.1-.4-.1-1.1-.4-1.3.2.6.1 1.2.3 1.8z"/><path d="m43.7 38.5c0 .1.1.2.1.2 0-.2-.1-.2-.1-.2z"/><path d="m9.8 89.3-5.2 10.5h2.6l.9-1.8h5.8l.9 1.9h2.7l-5.2-10.6zm-.7 6.7 1.2-2.5c.1-.2.2-.4.3-.6s.2-.4.3-.6c.1-.1.1-.3.2-.4 0 .1.1.2.1.3.1.2.2.4.3.6s.2.4.3.6l1.2 2.5h-3.9z"/><path d="m25.5 94.3-4.1-5.1h-2.3v10.6h2.5v-3.4c0-.8 0-1.6-.1-2.4 0-.3 0-.6-.1-.9l3.5 4.1h1l3.5-4.2c0 .3-.1.6-.1.9 0 .7-.1 1.5-.1 2.4v3.4h2.5v-10.4h-2.3z"/><path d="m43.5 89.7c-.6-.3-1.2-.5-1.9-.5h-6.4v10.6h2.6v-3.4h3.6c.8 0 1.5-.2 2.1-.5s1.1-.8 1.5-1.3c.4-.6.6-1.2.6-1.9s-.2-1.2-.5-1.8c-.6-.5-1.1-.9-1.6-1.2zm-1.1 3.8c-.2.2-.4.4-.7.5s-.6.2-.9.2h-3.1v-2.7h3.1c.3 0 .7.1.9.2.3.1.5.2.7.4s.3.4.3.7c-.1.2-.2.5-.3.7z"/><path d="m50.2 89.3h-2.5v10.5h9.4v-2.2h-6.9z"/><path d="m60.4 89.3h-1.3v10.6h2.6v-10.6c-.1 0-.2 0-.5 0s-.5 0-.8 0z"/><path d="m66.1 89.3h-1.2v10.5h2.6v-3.9h5.9v-2.1h-5.9v-2.3h6.5v-2.2h-6.5z"/><path d="m85.5 89.3-3.3 4.4-3.5-4.4h-3.2l5.4 6.6v3.9h2.5v-4l5.1-6.5z"/><path d="m90.3 90.2h1.4v4h1v-4h1.5v-1h-3.9z"/><path d="m99.2 89.2-1.7 2.8-1.6-2.8h-1v5h1.1v-2.8l1 1.7h1l1.1-1.9v3h1.1v-5z"/></g></svg>